<svg width="335" height="60" viewBox="0 0 335 60" fill="none" xmlns="http://www.w3.org/2000/svg">
<g clip-path="url(#clip0_1427_47458)">
<path d="M22.08 24.88C21.504 24.368 20.784 23.984 19.92 23.728C19.056 23.44 18.208 23.296 17.376 23.296C16.448 23.296 15.6 23.472 14.832 23.824C14.064 24.144 13.392 24.608 12.816 25.216C12.272 25.792 11.84 26.496 11.52 27.328C11.2 28.16 11.04 29.056 11.04 30.016C11.04 30.976 11.216 31.872 11.568 32.704C11.92 33.536 12.4 34.256 13.008 34.864C13.616 35.44 14.32 35.904 15.12 36.256C15.952 36.576 16.832 36.736 17.76 36.736C18.848 36.736 19.84 36.512 20.736 36.064C21.632 35.584 22.4 34.944 23.04 34.144H20.16V27.424H32.496V38.08C31.76 39.392 30.88 40.592 29.856 41.68C28.832 42.736 27.68 43.648 26.4 44.416C25.152 45.184 23.792 45.776 22.32 46.192C20.848 46.608 19.328 46.816 17.76 46.816C15.456 46.816 13.28 46.384 11.232 45.52C9.184 44.656 7.392 43.472 5.856 41.968C4.352 40.464 3.152 38.688 2.256 36.64C1.392 34.592 0.96 32.384 0.96 30.016C0.96 27.712 1.376 25.536 2.208 23.488C3.04 21.44 4.176 19.664 5.616 18.16C7.088 16.624 8.816 15.424 10.8 14.56C12.816 13.664 14.976 13.216 17.28 13.216C19.072 13.216 20.624 13.392 21.936 13.744C23.248 14.096 24.352 14.496 25.248 14.944C26.304 15.456 27.184 16.016 27.888 16.624L22.08 24.88ZM34.4288 30.016C34.4288 27.712 34.8608 25.536 35.7248 23.488C36.6208 21.44 37.8208 19.664 39.3248 18.16C40.8608 16.624 42.6528 15.424 44.7008 14.56C46.7488 13.664 48.9248 13.216 51.2288 13.216C53.5328 13.216 55.7088 13.664 57.7568 14.56C59.8048 15.424 61.5808 16.624 63.0848 18.16C64.6208 19.664 65.8208 21.44 66.6848 23.488C67.5808 25.536 68.0288 27.712 68.0288 30.016C68.0288 32.32 67.5808 34.496 66.6848 36.544C65.8208 38.592 64.6208 40.384 63.0848 41.92C61.5808 43.424 59.8048 44.624 57.7568 45.52C55.7088 46.384 53.5328 46.816 51.2288 46.816C48.9248 46.816 46.7488 46.384 44.7008 45.52C42.6528 44.624 40.8608 43.424 39.3248 41.92C37.8208 40.384 36.6208 38.592 35.7248 36.544C34.8608 34.496 34.4288 32.32 34.4288 30.016ZM44.5088 30.016C44.5088 30.944 44.6848 31.824 45.0368 32.656C45.3888 33.456 45.8688 34.16 46.4768 34.768C47.0848 35.376 47.7888 35.856 48.5888 36.208C49.4208 36.56 50.3008 36.736 51.2288 36.736C52.1568 36.736 53.0208 36.56 53.8208 36.208C54.6528 35.856 55.3728 35.376 55.9808 34.768C56.5888 34.16 57.0688 33.456 57.4208 32.656C57.7728 31.824 57.9488 30.944 57.9488 30.016C57.9488 29.088 57.7728 28.224 57.4208 27.424C57.0688 26.592 56.5888 25.872 55.9808 25.264C55.3728 24.656 54.6528 24.176 53.8208 23.824C53.0208 23.472 52.1568 23.296 51.2288 23.296C50.3008 23.296 49.4208 23.472 48.5888 23.824C47.7888 24.176 47.0848 24.656 46.4768 25.264C45.8688 25.872 45.3888 26.592 45.0368 27.424C44.6848 28.224 44.5088 29.088 44.5088 30.016ZM69.96 30.016C69.96 27.712 70.392 25.536 71.256 23.488C72.152 21.44 73.352 19.664 74.856 18.16C76.392 16.624 78.184 15.424 80.232 14.56C82.28 13.664 84.456 13.216 86.76 13.216C89.064 13.216 91.24 13.664 93.288 14.56C95.336 15.424 97.112 16.624 98.616 18.16C100.152 19.664 101.352 21.44 102.216 23.488C103.112 25.536 103.56 27.712 103.56 30.016C103.56 32.32 103.112 34.496 102.216 36.544C101.352 38.592 100.152 40.384 98.616 41.92C97.112 43.424 95.336 44.624 93.288 45.52C91.24 46.384 89.064 46.816 86.76 46.816C84.456 46.816 82.28 46.384 80.232 45.52C78.184 44.624 76.392 43.424 74.856 41.92C73.352 40.384 72.152 38.592 71.256 36.544C70.392 34.496 69.96 32.32 69.96 30.016ZM80.04 30.016C80.04 30.944 80.216 31.824 80.568 32.656C80.92 33.456 81.4 34.16 82.008 34.768C82.616 35.376 83.32 35.856 84.12 36.208C84.952 36.56 85.832 36.736 86.76 36.736C87.688 36.736 88.552 36.56 89.352 36.208C90.184 35.856 90.904 35.376 91.512 34.768C92.12 34.16 92.6 33.456 92.952 32.656C93.304 31.824 93.48 30.944 93.48 30.016C93.48 29.088 93.304 28.224 92.952 27.424C92.6 26.592 92.12 25.872 91.512 25.264C90.904 24.656 90.184 24.176 89.352 23.824C88.552 23.472 87.688 23.296 86.76 23.296C85.832 23.296 84.952 23.472 84.12 23.824C83.32 24.176 82.616 24.656 82.008 25.264C81.4 25.872 80.92 26.592 80.568 27.424C80.216 28.224 80.04 29.088 80.04 30.016ZM106.211 46V13.984H115.091C118.099 13.984 120.771 14.32 123.107 14.992C125.475 15.664 127.459 16.672 129.059 18.016C130.691 19.36 131.923 21.04 132.755 23.056C133.619 25.04 134.051 27.344 134.051 29.968C134.051 32.592 133.619 34.912 132.755 36.928C131.923 38.912 130.691 40.576 129.059 41.92C127.459 43.264 125.475 44.288 123.107 44.992C120.771 45.664 118.099 46 115.091 46H106.211ZM116.435 36.88C118.835 36.88 120.691 36.32 122.003 35.2C123.315 34.048 123.971 32.304 123.971 29.968C123.971 27.632 123.315 25.904 122.003 24.784C120.691 23.664 118.835 23.104 116.435 23.104V36.88ZM155.793 13.984H163.473L175.617 46H165.537L164.481 43.12H154.785L153.729 46H143.649L155.793 13.984ZM161.793 36.064L159.633 30.448L157.473 36.064H161.793ZM175.472 36.064C176.176 36.288 176.912 36.464 177.68 36.592C178.32 36.752 179.04 36.88 179.84 36.976C180.672 37.072 181.504 37.12 182.336 37.12C183.808 37.12 184.544 36.576 184.544 35.488C184.544 35.072 184.32 34.656 183.872 34.24C183.424 33.792 182.848 33.312 182.144 32.8C181.472 32.256 180.736 31.664 179.936 31.024C179.168 30.384 178.432 29.648 177.728 28.816C177.056 27.984 176.496 27.056 176.048 26.032C175.6 24.976 175.376 23.776 175.376 22.432C175.376 20.928 175.648 19.6 176.192 18.448C176.736 17.296 177.488 16.336 178.448 15.568C179.408 14.8 180.528 14.224 181.808 13.84C183.12 13.424 184.512 13.216 185.984 13.216C186.752 13.216 187.52 13.264 188.288 13.36C189.056 13.424 189.744 13.488 190.352 13.552C191.056 13.648 191.744 13.744 192.416 13.84V22.816C192.16 22.784 191.872 22.752 191.552 22.72C191.296 22.688 191.008 22.656 190.688 22.624C190.368 22.592 190.032 22.576 189.68 22.576C189.488 22.576 189.248 22.592 188.96 22.624C188.672 22.624 188.4 22.656 188.144 22.72C187.888 22.784 187.664 22.896 187.472 23.056C187.28 23.216 187.184 23.44 187.184 23.728C187.184 23.984 187.392 24.304 187.808 24.688C188.256 25.072 188.784 25.52 189.392 26.032C190.032 26.544 190.72 27.136 191.456 27.808C192.224 28.48 192.912 29.248 193.52 30.112C194.16 30.976 194.688 31.952 195.104 33.04C195.552 34.128 195.776 35.344 195.776 36.688C195.776 38.096 195.552 39.424 195.104 40.672C194.656 41.888 193.952 42.96 192.992 43.888C192.064 44.784 190.864 45.488 189.392 46C187.92 46.544 186.176 46.816 184.16 46.816C182.944 46.816 181.808 46.752 180.752 46.624C179.728 46.528 178.816 46.4 178.016 46.24C177.088 46.08 176.24 45.888 175.472 45.664V36.064ZM207.555 13.984H215.955L224.787 26.32V13.984H234.819V46H226.371L217.587 33.712V46H207.555V13.984ZM238.164 13.984H257.028V22.384H248.388V25.936H256.884V33.904H248.388V37.6H257.364V46H238.164V13.984ZM257.602 13.984H268.451L272.147 25.168L275.843 13.984H282.851L286.547 25.168L290.243 13.984H301.091L290.531 46H282.562L279.347 36.304L276.131 46H268.163L257.602 13.984ZM300.957 36.064C301.661 36.288 302.397 36.464 303.165 36.592C303.805 36.752 304.525 36.88 305.325 36.976C306.157 37.072 306.989 37.12 307.821 37.12C309.293 37.12 310.029 36.576 310.029 35.488C310.029 35.072 309.805 34.656 309.357 34.24C308.909 33.792 308.333 33.312 307.629 32.8C306.957 32.256 306.221 31.664 305.421 31.024C304.653 30.384 303.917 29.648 303.213 28.816C302.541 27.984 301.981 27.056 301.533 26.032C301.085 24.976 300.861 23.776 300.861 22.432C300.861 20.928 301.133 19.6 301.677 18.448C302.221 17.296 302.973 16.336 303.933 15.568C304.893 14.8 306.013 14.224 307.293 13.84C308.605 13.424 309.997 13.216 311.469 13.216C312.237 13.216 313.005 13.264 313.773 13.36C314.541 13.424 315.229 13.488 315.837 13.552C316.541 13.648 317.229 13.744 317.901 13.84V22.816C317.645 22.784 317.357 22.752 317.037 22.72C316.781 22.688 316.493 22.656 316.173 22.624C315.853 22.592 315.517 22.576 315.165 22.576C314.973 22.576 314.733 22.592 314.445 22.624C314.157 22.624 313.885 22.656 313.629 22.72C313.373 22.784 313.149 22.896 312.957 23.056C312.765 23.216 312.669 23.44 312.669 23.728C312.669 23.984 312.877 24.304 313.293 24.688C313.741 25.072 314.269 25.52 314.877 26.032C315.517 26.544 316.205 27.136 316.941 27.808C317.709 28.48 318.397 29.248 319.005 30.112C319.645 30.976 320.173 31.952 320.589 33.04C321.037 34.128 321.261 35.344 321.261 36.688C321.261 38.096 321.037 39.424 320.589 40.672C320.141 41.888 319.437 42.96 318.477 43.888C317.549 44.784 316.349 45.488 314.877 46C313.405 46.544 311.661 46.816 309.645 46.816C308.429 46.816 307.293 46.752 306.237 46.624C305.213 46.528 304.301 46.4 303.501 46.24C302.573 46.08 301.725 45.888 300.957 45.664V36.064ZM323.19 37.984H333.462V46H323.19V37.984Z" fill="#A8096F"/>
</g>
<defs>
<clipPath id="clip0_1427_47458">
<rect width="335" height="60" fill="white"/>
</clipPath>
</defs>
</svg>
